<svg width="202" height="21" viewBox="0 0 202 21" fill="none" xmlns="http://www.w3.org/2000/svg">
    <path
        d="M8.22219 4.75L9.60219 6.93L3.11219 10.72L12.1622 16.04L10.7422 18.29L0.382186 11.85V9.61L8.22219 4.75ZM11.4422 20.47L8.97219 19.34L17.9722 0.659999L20.4222 1.79L11.4422 20.47ZM193.899 4.75L201.719 9.59V11.85L193.929 16.69L192.499 14.54L198.999 10.72L192.499 7.02L193.899 4.75Z"
        fill="#5CC4C4" />
    <path
        d="M38.1875 15.4531V5.625H36.3047V17H43.6172V15.4531H38.1875ZM49.7422 17.1562C50.5651 17.1562 51.2656 16.9948 51.8438 16.6719C52.4271 16.349 52.8594 15.9844 53.1406 15.5781L52.1406 14.6094C51.8802 14.9427 51.5495 15.2005 51.1484 15.3828C50.7474 15.5599 50.3151 15.6484 49.8516 15.6484C49.513 15.6484 49.2005 15.5911 48.9141 15.4766C48.6328 15.362 48.388 15.2005 48.1797 14.9922C47.9714 14.7943 47.8073 14.5703 47.6875 14.3203C47.5677 14.0703 47.4792 13.7604 47.4219 13.3906V13.3516H53.2812V12.5469C53.2812 11.9427 53.2005 11.3854 53.0391 10.875C52.8776 10.3646 52.638 9.92448 52.3203 9.55469C52.0026 9.1901 51.6094 8.90625 51.1406 8.70312C50.6719 8.49479 50.1328 8.39062 49.5234 8.39062C48.9766 8.39062 48.4609 8.49479 47.9766 8.70312C47.4974 8.90625 47.0755 9.19792 46.7109 9.57812C46.3464 9.95833 46.0599 10.4167 45.8516 10.9531C45.6432 11.4896 45.5391 12.0885 45.5391 12.75V13.0703C45.5391 13.6484 45.638 14.1875 45.8359 14.6875C46.0391 15.1823 46.3255 15.612 46.6953 15.9766C47.0651 16.3464 47.5078 16.6354 48.0234 16.8438C48.5443 17.0521 49.1172 17.1562 49.7422 17.1562ZM49.5156 9.90625C49.8281 9.90625 50.1016 9.96094 50.3359 10.0703C50.5755 10.1745 50.7734 10.3151 50.9297 10.4922C51.0911 10.6745 51.2161 10.888 51.3047 11.1328C51.3932 11.3724 51.4375 11.6146 51.4375 11.8594V11.9844H47.4609C47.5182 11.6615 47.6068 11.3724 47.7266 11.1172C47.8464 10.862 47.9948 10.6432 48.1719 10.4609C48.349 10.2839 48.5495 10.1484 48.7734 10.0547C49.0026 9.95573 49.25 9.90625 49.5156 9.90625ZM55.0625 12.6953V12.8594C55.0625 13.4792 55.151 14.0495 55.3281 14.5703C55.5052 15.0911 55.763 15.5443 56.1016 15.9297C56.4349 16.3151 56.8464 16.6172 57.3359 16.8359C57.8255 17.0547 58.3802 17.1641 59 17.1641C59.6146 17.1641 60.1641 17.0547 60.6484 16.8359C61.138 16.6172 61.5495 16.3151 61.8828 15.9297C62.2161 15.5443 62.4714 15.0911 62.6484 14.5703C62.8255 14.0495 62.9141 13.4792 62.9141 12.8594V12.6953C62.9141 12.0807 62.8255 11.513 62.6484 10.9922C62.4714 10.4661 62.2161 10.0104 61.8828 9.625C61.5443 9.23958 61.1302 8.9375 60.6406 8.71875C60.1562 8.5 59.6042 8.39062 58.9844 8.39062C58.3646 8.39062 57.8125 8.5 57.3281 8.71875C56.8438 8.9375 56.4349 9.23958 56.1016 9.625C55.763 10.0104 55.5052 10.4661 55.3281 10.9922C55.151 11.513 55.0625 12.0807 55.0625 12.6953ZM56.9297 12.8594V12.6953C56.9297 12.3255 56.9688 11.9714 57.0469 11.6328C57.1302 11.2943 57.2578 10.9974 57.4297 10.7422C57.5964 10.487 57.8073 10.2839 58.0625 10.1328C58.3229 9.98177 58.6302 9.90625 58.9844 9.90625C59.3438 9.90625 59.651 9.98177 59.9062 10.1328C60.1667 10.2839 60.3828 10.487 60.5547 10.7422C60.7161 10.9974 60.8385 11.2943 60.9219 11.6328C61.0052 11.9714 61.0469 12.3255 61.0469 12.6953V12.8594C61.0469 13.2396 61.0052 13.599 60.9219 13.9375C60.8438 14.276 60.7214 14.5729 60.5547 14.8281C60.388 15.0833 60.1745 15.2865 59.9141 15.4375C59.6536 15.5833 59.349 15.6562 59 15.6562C58.6406 15.6562 58.3307 15.5833 58.0703 15.4375C57.8099 15.2865 57.5964 15.0833 57.4297 14.8281C57.2578 14.5729 57.1302 14.276 57.0469 13.9375C56.9688 13.599 56.9297 13.2396 56.9297 12.8594ZM65.0156 17H66.8828V10.9688C66.9661 10.8281 67.0625 10.6979 67.1719 10.5781C67.2812 10.4583 67.3984 10.3568 67.5234 10.2734C67.6849 10.1641 67.8646 10.0807 68.0625 10.0234C68.2604 9.96094 68.474 9.92969 68.7031 9.92969C68.9792 9.92969 69.224 9.96094 69.4375 10.0234C69.651 10.0807 69.8333 10.1797 69.9844 10.3203C70.1354 10.4609 70.25 10.6484 70.3281 10.8828C70.4062 11.1172 70.4453 11.4089 70.4453 11.7578V17H72.3125V11.7266C72.3125 11.1328 72.2422 10.6276 72.1016 10.2109C71.9609 9.78906 71.763 9.44271 71.5078 9.17188C71.2526 8.90104 70.9453 8.70312 70.5859 8.57812C70.2266 8.45312 69.8307 8.39062 69.3984 8.39062C69.0703 8.39062 68.7578 8.4375 68.4609 8.53125C68.1641 8.625 67.8906 8.75781 67.6406 8.92969C67.4844 9.03906 67.3359 9.16406 67.1953 9.30469C67.0599 9.4401 66.9349 9.58854 66.8203 9.75L66.7031 8.54688H65.0156V17ZM80.0234 17H81.9297V16.8672C81.8255 16.6484 81.7448 16.388 81.6875 16.0859C81.6354 15.7786 81.6094 15.4349 81.6094 15.0547V11.2969C81.6094 10.8177 81.5208 10.3958 81.3438 10.0312C81.1667 9.66146 80.9219 9.35677 80.6094 9.11719C80.2969 8.8776 79.9245 8.69792 79.4922 8.57812C79.0651 8.45312 78.6042 8.39062 78.1094 8.39062C77.5573 8.39062 77.0651 8.46354 76.6328 8.60938C76.2057 8.75 75.8464 8.94271 75.5547 9.1875C75.2526 9.42708 75.0234 9.70312 74.8672 10.0156C74.7109 10.3281 74.6302 10.6536 74.625 10.9922H76.5C76.5 10.8307 76.5286 10.6797 76.5859 10.5391C76.6484 10.3932 76.7422 10.2708 76.8672 10.1719C76.9922 10.0625 77.1484 9.97656 77.3359 9.91406C77.5286 9.85156 77.7526 9.82031 78.0078 9.82031C78.2891 9.82031 78.5365 9.85677 78.75 9.92969C78.9688 9.9974 79.1536 10.0964 79.3047 10.2266C79.4453 10.3568 79.5521 10.5104 79.625 10.6875C79.7031 10.8646 79.7422 11.0625 79.7422 11.2812V11.8516H78.3828C77.7734 11.8516 77.2266 11.9089 76.7422 12.0234C76.263 12.138 75.8594 12.3047 75.5312 12.5234C75.1771 12.7578 74.9062 13.0547 74.7188 13.4141C74.5365 13.7682 74.4453 14.1771 74.4453 14.6406C74.4453 15 74.5156 15.3359 74.6562 15.6484C74.8021 15.9557 75.0052 16.2188 75.2656 16.4375C75.5208 16.6615 75.8281 16.8385 76.1875 16.9688C76.5521 17.0938 76.9531 17.1562 77.3906 17.1562C77.6615 17.1562 77.9141 17.1302 78.1484 17.0781C78.3828 17.026 78.6016 16.9531 78.8047 16.8594C79.0078 16.7708 79.1901 16.6667 79.3516 16.5469C79.5182 16.4219 79.6667 16.2917 79.7969 16.1562C79.8229 16.3177 79.8516 16.474 79.8828 16.625C79.9193 16.7708 79.9661 16.8958 80.0234 17ZM77.75 15.6562C77.5104 15.6562 77.3021 15.6276 77.125 15.5703C76.9479 15.5078 76.7995 15.4245 76.6797 15.3203C76.5599 15.2161 76.4688 15.0911 76.4062 14.9453C76.3438 14.7943 76.3125 14.6328 76.3125 14.4609C76.3125 14.2526 76.349 14.0651 76.4219 13.8984C76.5 13.7318 76.6172 13.5885 76.7734 13.4688C76.9505 13.3281 77.1875 13.2214 77.4844 13.1484C77.7812 13.0703 78.1328 13.0312 78.5391 13.0312H79.7422V14.5938C79.6745 14.7292 79.5781 14.8594 79.4531 14.9844C79.3281 15.1094 79.1797 15.2214 79.0078 15.3203C78.8359 15.4193 78.6432 15.5 78.4297 15.5625C78.2214 15.625 77.9948 15.6562 77.75 15.6562ZM90.0781 8.39062C89.4948 8.39062 88.9609 8.52604 88.4766 8.79688C87.9974 9.06771 87.5859 9.4401 87.2422 9.91406L87.2344 9.71875L87.1562 8.54688H85.4062V17H87.2734V11.7812C87.3724 11.5312 87.4948 11.3099 87.6406 11.1172C87.7865 10.9245 87.9635 10.7656 88.1719 10.6406C88.3646 10.5104 88.5859 10.4141 88.8359 10.3516C89.0859 10.2891 89.3672 10.2578 89.6797 10.2578C89.9557 10.2578 90.2318 10.2734 90.5078 10.3047C90.7891 10.3359 91.0729 10.3828 91.3594 10.4453L91.625 8.60156C91.4635 8.54427 91.2396 8.49479 90.9531 8.45312C90.6719 8.41146 90.3802 8.39062 90.0781 8.39062ZM93.5938 12.7109V12.875C93.5938 13.4844 93.6719 14.0521 93.8281 14.5781C93.9844 15.099 94.2057 15.5495 94.4922 15.9297C94.7786 16.3151 95.1276 16.6172 95.5391 16.8359C95.9505 17.0495 96.4141 17.1562 96.9297 17.1562C97.4193 17.1562 97.8516 17.0677 98.2266 16.8906C98.6016 16.7083 98.9245 16.4505 99.1953 16.1172L99.2812 17H100.977V5H99.1094V9.33594C98.8385 9.03385 98.526 8.80208 98.1719 8.64062C97.8229 8.47396 97.4141 8.39062 96.9453 8.39062C96.4245 8.39062 95.9557 8.4974 95.5391 8.71094C95.1276 8.91927 94.7786 9.21354 94.4922 9.59375C94.2005 9.97396 93.9766 10.4297 93.8203 10.9609C93.6693 11.487 93.5938 12.0703 93.5938 12.7109ZM95.4609 12.875V12.7109C95.4609 12.3307 95.4974 11.974 95.5703 11.6406C95.6432 11.3021 95.7604 11.0052 95.9219 10.75C96.0729 10.4948 96.2708 10.2943 96.5156 10.1484C96.7656 10.0026 97.0651 9.92969 97.4141 9.92969C97.8307 9.92969 98.1745 10.0234 98.4453 10.2109C98.7214 10.3932 98.9427 10.6406 99.1094 10.9531V14.5859C98.9427 14.9036 98.7214 15.1562 98.4453 15.3438C98.1693 15.526 97.8203 15.6172 97.3984 15.6172C97.0547 15.6172 96.7604 15.5469 96.5156 15.4062C96.2708 15.2604 96.0703 15.0599 95.9141 14.8047C95.7578 14.5599 95.6432 14.2708 95.5703 13.9375C95.4974 13.6042 95.4609 13.25 95.4609 12.875ZM103.109 12.6953V12.8594C103.109 13.4792 103.198 14.0495 103.375 14.5703C103.552 15.0911 103.81 15.5443 104.148 15.9297C104.482 16.3151 104.893 16.6172 105.383 16.8359C105.872 17.0547 106.427 17.1641 107.047 17.1641C107.661 17.1641 108.211 17.0547 108.695 16.8359C109.185 16.6172 109.596 16.3151 109.93 15.9297C110.263 15.5443 110.518 15.0911 110.695 14.5703C110.872 14.0495 110.961 13.4792 110.961 12.8594V12.6953C110.961 12.0807 110.872 11.513 110.695 10.9922C110.518 10.4661 110.263 10.0104 109.93 9.625C109.591 9.23958 109.177 8.9375 108.688 8.71875C108.203 8.5 107.651 8.39062 107.031 8.39062C106.411 8.39062 105.859 8.5 105.375 8.71875C104.891 8.9375 104.482 9.23958 104.148 9.625C103.81 10.0104 103.552 10.4661 103.375 10.9922C103.198 11.513 103.109 12.0807 103.109 12.6953ZM104.977 12.8594V12.6953C104.977 12.3255 105.016 11.9714 105.094 11.6328C105.177 11.2943 105.305 10.9974 105.477 10.7422C105.643 10.487 105.854 10.2839 106.109 10.1328C106.37 9.98177 106.677 9.90625 107.031 9.90625C107.391 9.90625 107.698 9.98177 107.953 10.1328C108.214 10.2839 108.43 10.487 108.602 10.7422C108.763 10.9974 108.885 11.2943 108.969 11.6328C109.052 11.9714 109.094 12.3255 109.094 12.6953V12.8594C109.094 13.2396 109.052 13.599 108.969 13.9375C108.891 14.276 108.768 14.5729 108.602 14.8281C108.435 15.0833 108.221 15.2865 107.961 15.4375C107.701 15.5833 107.396 15.6562 107.047 15.6562C106.688 15.6562 106.378 15.5833 106.117 15.4375C105.857 15.2865 105.643 15.0833 105.477 14.8281C105.305 14.5729 105.177 14.276 105.094 13.9375C105.016 13.599 104.977 13.2396 104.977 12.8594ZM124.852 5.625H122.523V17H124.281V13.1406L124.18 8.25L125.766 13.4922H126.742L128.492 8.0625L128.383 13.1406V17H130.148V5.625H127.812L126.258 10.4922L124.852 5.625ZM131.938 12.6953V12.8594C131.938 13.4792 132.026 14.0495 132.203 14.5703C132.38 15.0911 132.638 15.5443 132.977 15.9297C133.31 16.3151 133.721 16.6172 134.211 16.8359C134.701 17.0547 135.255 17.1641 135.875 17.1641C136.49 17.1641 137.039 17.0547 137.523 16.8359C138.013 16.6172 138.424 16.3151 138.758 15.9297C139.091 15.5443 139.346 15.0911 139.523 14.5703C139.701 14.0495 139.789 13.4792 139.789 12.8594V12.6953C139.789 12.0807 139.701 11.513 139.523 10.9922C139.346 10.4661 139.091 10.0104 138.758 9.625C138.419 9.23958 138.005 8.9375 137.516 8.71875C137.031 8.5 136.479 8.39062 135.859 8.39062C135.24 8.39062 134.688 8.5 134.203 8.71875C133.719 8.9375 133.31 9.23958 132.977 9.625C132.638 10.0104 132.38 10.4661 132.203 10.9922C132.026 11.513 131.938 12.0807 131.938 12.6953ZM133.805 12.8594V12.6953C133.805 12.3255 133.844 11.9714 133.922 11.6328C134.005 11.2943 134.133 10.9974 134.305 10.7422C134.471 10.487 134.682 10.2839 134.938 10.1328C135.198 9.98177 135.505 9.90625 135.859 9.90625C136.219 9.90625 136.526 9.98177 136.781 10.1328C137.042 10.2839 137.258 10.487 137.43 10.7422C137.591 10.9974 137.714 11.2943 137.797 11.6328C137.88 11.9714 137.922 12.3255 137.922 12.6953V12.8594C137.922 13.2396 137.88 13.599 137.797 13.9375C137.719 14.276 137.596 14.5729 137.43 14.8281C137.263 15.0833 137.049 15.2865 136.789 15.4375C136.529 15.5833 136.224 15.6562 135.875 15.6562C135.516 15.6562 135.206 15.5833 134.945 15.4375C134.685 15.2865 134.471 15.0833 134.305 14.8281C134.133 14.5729 134.005 14.276 133.922 13.9375C133.844 13.599 133.805 13.2396 133.805 12.8594ZM147.734 8.39062C147.151 8.39062 146.617 8.52604 146.133 8.79688C145.654 9.06771 145.242 9.4401 144.898 9.91406L144.891 9.71875L144.812 8.54688H143.062V17H144.93V11.7812C145.029 11.5312 145.151 11.3099 145.297 11.1172C145.443 10.9245 145.62 10.7656 145.828 10.6406C146.021 10.5104 146.242 10.4141 146.492 10.3516C146.742 10.2891 147.023 10.2578 147.336 10.2578C147.612 10.2578 147.888 10.2734 148.164 10.3047C148.445 10.3359 148.729 10.3828 149.016 10.4453L149.281 8.60156C149.12 8.54427 148.896 8.49479 148.609 8.45312C148.328 8.41146 148.036 8.39062 147.734 8.39062ZM156.898 17H158.805V16.8672C158.701 16.6484 158.62 16.388 158.562 16.0859C158.51 15.7786 158.484 15.4349 158.484 15.0547V11.2969C158.484 10.8177 158.396 10.3958 158.219 10.0312C158.042 9.66146 157.797 9.35677 157.484 9.11719C157.172 8.8776 156.799 8.69792 156.367 8.57812C155.94 8.45312 155.479 8.39062 154.984 8.39062C154.432 8.39062 153.94 8.46354 153.508 8.60938C153.081 8.75 152.721 8.94271 152.43 9.1875C152.128 9.42708 151.898 9.70312 151.742 10.0156C151.586 10.3281 151.505 10.6536 151.5 10.9922H153.375C153.375 10.8307 153.404 10.6797 153.461 10.5391C153.523 10.3932 153.617 10.2708 153.742 10.1719C153.867 10.0625 154.023 9.97656 154.211 9.91406C154.404 9.85156 154.628 9.82031 154.883 9.82031C155.164 9.82031 155.411 9.85677 155.625 9.92969C155.844 9.9974 156.029 10.0964 156.18 10.2266C156.32 10.3568 156.427 10.5104 156.5 10.6875C156.578 10.8646 156.617 11.0625 156.617 11.2812V11.8516H155.258C154.648 11.8516 154.102 11.9089 153.617 12.0234C153.138 12.138 152.734 12.3047 152.406 12.5234C152.052 12.7578 151.781 13.0547 151.594 13.4141C151.411 13.7682 151.32 14.1771 151.32 14.6406C151.32 15 151.391 15.3359 151.531 15.6484C151.677 15.9557 151.88 16.2188 152.141 16.4375C152.396 16.6615 152.703 16.8385 153.062 16.9688C153.427 17.0938 153.828 17.1562 154.266 17.1562C154.536 17.1562 154.789 17.1302 155.023 17.0781C155.258 17.026 155.477 16.9531 155.68 16.8594C155.883 16.7708 156.065 16.6667 156.227 16.5469C156.393 16.4219 156.542 16.2917 156.672 16.1562C156.698 16.3177 156.727 16.474 156.758 16.625C156.794 16.7708 156.841 16.8958 156.898 17ZM154.625 15.6562C154.385 15.6562 154.177 15.6276 154 15.5703C153.823 15.5078 153.674 15.4245 153.555 15.3203C153.435 15.2161 153.344 15.0911 153.281 14.9453C153.219 14.7943 153.188 14.6328 153.188 14.4609C153.188 14.2526 153.224 14.0651 153.297 13.8984C153.375 13.7318 153.492 13.5885 153.648 13.4688C153.826 13.3281 154.062 13.2214 154.359 13.1484C154.656 13.0703 155.008 13.0312 155.414 13.0312H156.617V14.5938C156.549 14.7292 156.453 14.8594 156.328 14.9844C156.203 15.1094 156.055 15.2214 155.883 15.3203C155.711 15.4193 155.518 15.5 155.305 15.5625C155.096 15.625 154.87 15.6562 154.625 15.6562ZM165.055 17.1562C165.878 17.1562 166.578 16.9948 167.156 16.6719C167.74 16.349 168.172 15.9844 168.453 15.5781L167.453 14.6094C167.193 14.9427 166.862 15.2005 166.461 15.3828C166.06 15.5599 165.628 15.6484 165.164 15.6484C164.826 15.6484 164.513 15.5911 164.227 15.4766C163.945 15.362 163.701 15.2005 163.492 14.9922C163.284 14.7943 163.12 14.5703 163 14.3203C162.88 14.0703 162.792 13.7604 162.734 13.3906V13.3516H168.594V12.5469C168.594 11.9427 168.513 11.3854 168.352 10.875C168.19 10.3646 167.951 9.92448 167.633 9.55469C167.315 9.1901 166.922 8.90625 166.453 8.70312C165.984 8.49479 165.445 8.39062 164.836 8.39062C164.289 8.39062 163.773 8.49479 163.289 8.70312C162.81 8.90625 162.388 9.19792 162.023 9.57812C161.659 9.95833 161.372 10.4167 161.164 10.9531C160.956 11.4896 160.852 12.0885 160.852 12.75V13.0703C160.852 13.6484 160.951 14.1875 161.148 14.6875C161.352 15.1823 161.638 15.612 162.008 15.9766C162.378 16.3464 162.82 16.6354 163.336 16.8438C163.857 17.0521 164.43 17.1562 165.055 17.1562ZM164.828 9.90625C165.141 9.90625 165.414 9.96094 165.648 10.0703C165.888 10.1745 166.086 10.3151 166.242 10.4922C166.404 10.6745 166.529 10.888 166.617 11.1328C166.706 11.3724 166.75 11.6146 166.75 11.8594V11.9844H162.773C162.831 11.6615 162.919 11.3724 163.039 11.1172C163.159 10.862 163.307 10.6432 163.484 10.4609C163.661 10.2839 163.862 10.1484 164.086 10.0547C164.315 9.95573 164.562 9.90625 164.828 9.90625ZM176.242 14.7109C176.242 14.8464 176.211 14.9714 176.148 15.0859C176.091 15.1953 176.003 15.2969 175.883 15.3906C175.737 15.5052 175.542 15.5964 175.297 15.6641C175.057 15.7318 174.776 15.7656 174.453 15.7656C174.214 15.7656 173.977 15.7422 173.742 15.6953C173.508 15.6432 173.299 15.5599 173.117 15.4453C172.93 15.3359 172.773 15.1927 172.648 15.0156C172.529 14.8333 172.461 14.612 172.445 14.3516H170.633C170.633 14.7005 170.716 15.0443 170.883 15.3828C171.049 15.7214 171.294 16.0208 171.617 16.2812C171.935 16.5469 172.328 16.7604 172.797 16.9219C173.271 17.0833 173.812 17.1641 174.422 17.1641C174.969 17.1641 175.466 17.1016 175.914 16.9766C176.362 16.8516 176.747 16.6771 177.07 16.4531C177.388 16.2292 177.633 15.9609 177.805 15.6484C177.982 15.3359 178.07 14.9922 178.07 14.6172C178.07 14.2318 177.987 13.8984 177.82 13.6172C177.654 13.3359 177.419 13.0911 177.117 12.8828C176.815 12.6849 176.451 12.5182 176.023 12.3828C175.596 12.2474 175.125 12.1328 174.609 12.0391C174.24 11.9766 173.932 11.9062 173.688 11.8281C173.448 11.75 173.26 11.6641 173.125 11.5703C172.979 11.4818 172.878 11.3802 172.82 11.2656C172.763 11.1458 172.734 11.013 172.734 10.8672C172.734 10.7266 172.768 10.5938 172.836 10.4688C172.904 10.3385 173.005 10.2266 173.141 10.1328C173.276 10.0286 173.448 9.94792 173.656 9.89062C173.87 9.82812 174.117 9.79688 174.398 9.79688C174.706 9.79688 174.974 9.83854 175.203 9.92188C175.432 10 175.62 10.1068 175.766 10.2422C175.891 10.3568 175.984 10.487 176.047 10.6328C176.115 10.7734 176.148 10.9219 176.148 11.0781H178.016C178.016 10.6979 177.932 10.3438 177.766 10.0156C177.599 9.6875 177.362 9.40365 177.055 9.16406C176.742 8.92448 176.362 8.73698 175.914 8.60156C175.466 8.46094 174.961 8.39062 174.398 8.39062C173.872 8.39062 173.393 8.45833 172.961 8.59375C172.534 8.72917 172.169 8.91406 171.867 9.14844C171.56 9.38281 171.323 9.65625 171.156 9.96875C170.995 10.276 170.914 10.6016 170.914 10.9453C170.914 11.3047 170.995 11.6198 171.156 11.8906C171.318 12.1615 171.542 12.3958 171.828 12.5938C172.12 12.8021 172.466 12.9792 172.867 13.125C173.273 13.2708 173.721 13.3932 174.211 13.4922C174.602 13.5651 174.927 13.6432 175.188 13.7266C175.448 13.8099 175.659 13.8984 175.82 13.9922C175.971 14.0964 176.078 14.2057 176.141 14.3203C176.208 14.4349 176.242 14.5651 176.242 14.7109Z"
        fill="white" />
</svg>
